<?xml version="1.0" standalone="no"?>
<!DOCTYPE svg PUBLIC "-//W3C//DTD SVG 20010904//EN"
 "http://www.w3.org/TR/2001/REC-SVG-20010904/DTD/svg10.dtd">
<svg version="1.0" xmlns="http://www.w3.org/2000/svg"
 width="260.000000pt" height="260.000000pt" viewBox="0 0 260.000000 260.000000"
 preserveAspectRatio="xMidYMid meet">
<metadata>
Created by potrace 1.14, written by Peter Selinger 2001-2017
</metadata>
<g transform="translate(0.000000,260.000000) scale(0.100000,-0.100000)"
fill="#000000" stroke="none">
<path d="M2489 2566 c-2 -2 -22 -7 -44 -10 -130 -20 -381 -91 -517 -147 -217
-89 -457 -233 -658 -393 -101 -80 -369 -351 -450 -455 -36 -45 -91 -119 -122
-164 -32 -45 -62 -87 -68 -94 -26 -31 -197 -327 -249 -431 -55 -110 -151 -323
-151 -336 0 -3 -11 -29 -24 -58 -42 -92 -141 -409 -134 -430 5 -14 9 -8 131
177 121 183 272 398 290 413 13 11 63 22 157 36 110 16 247 54 340 93 180 77
377 220 458 332 44 60 37 67 -88 87 -60 10 -73 15 -63 25 8 8 75 29 173 53
223 56 480 195 616 334 76 76 76 77 121 143 42 61 33 68 -65 55 -96 -14 -176
-7 -199 18 -21 21 -33 12 124 99 230 127 349 238 431 402 38 75 75 212 64 243
-3 11 -63 18 -73 8z"/>
<path d="M2107 144 c-2 -2 -154 -7 -637 -19 -80 -3 -215 -7 -300 -9 -85 -3
-258 -8 -385 -11 -126 -4 -270 -8 -320 -10 -49 -2 -110 -4 -134 -4 -24 -1 -42
-3 -40 -6 6 -5 161 -13 394 -20 99 -3 257 -7 350 -10 162 -5 622 -14 1007 -20
163 -2 179 -1 198 17 11 10 20 27 20 38 0 17 -23 49 -38 51 -12 2 -113 4 -115
3z"/>
</g>
</svg>
